<svg width="960" height="544" viewBox="0 0 960 544" fill="none" xmlns="http://www.w3.org/2000/svg">
<g id="layout">
<g id="window">
<path id="window__body" d="M0 38H960V540C960 542.209 958.209 544 956 544H4C1.79086 544 0 542.209 0 540V38Z" fill="#282A36"/>
<path id="window__head" d="M0 16C0 7.16344 7.16345 0 16 0H944C952.837 0 960 7.16344 960 16V38H0V16Z" fill="#F8F8F2"/>
<rect id="window__minimize" x="18" y="11" width="16" height="16" rx="8" fill="#F1FA8C"/>
<rect id="window__maxmize" x="44" y="12" width="16" height="16" rx="8" fill="#50FA7B"/>
<rect id="widow__back" x="70" y="11" width="16" height="16" rx="8" fill="#FF5555"/>
</g>
<g id="mobile">
<g id="mob__infos">
<rect id="mob__infos--bg" x="487" y="66" width="237" height="414" rx="12" fill="#F8F8F2"/>
<g id="mob__infos--profile">
<path id="Rectangle 12" d="M501 222C501 211.507 509.507 203 520 203V203C530.493 203 539 211.507 539 222V222C539 232.493 530.493 241 520 241V241C509.507 241 501 232.493 501 222V222Z" fill="#BD93F9"/>
<g id="Group 4">
<g id="Group 11">
<rect id="Rectangle 16" x="541" y="210" width="44" height="10" rx="5" fill="#BD93F9"/>
<rect id="Rectangle 17" x="541" y="224" width="123" height="10" rx="5" fill="#BD93F9"/>
</g>
</g>
</g>
<g id="mob__infos--profile_2">
<path id="Rectangle 11" d="M501 155C501 144.507 509.507 136 520 136V136C530.493 136 539 144.507 539 155V155C539 165.493 530.493 174 520 174V174C509.507 174 501 165.493 501 155V155Z" fill="#BD93F9"/>
<g id="Group 5">
<rect id="Rectangle 14" x="541" y="143" width="44" height="10" rx="5" fill="#BD93F9"/>
<rect id="Rectangle 15" x="541" y="157" width="123" height="10" rx="5" fill="#BD93F9"/>
</g>
</g>
</g>
<g id="mob">
<g id="mob__bg">
<g id="mob_bg--back" filter="url(#filter0_d)">
<rect x="606" y="96" width="200" height="360" rx="12" fill="#222222"/>
</g>
<g id="mob__bg--front" filter="url(#filter1_d)">
<rect x="619" y="82" width="200" height="360" rx="12" fill="#282A36"/>
</g>
</g>
<g id="button">
<path id="button__principal" d="M706 397C706 386.507 714.507 378 725 378V378C735.493 378 744 386.507 744 397V397C744 407.493 735.493 416 725 416V416C714.507 416 706 407.493 706 397V397Z" fill="#50FA7B"/>
<g id="button__top">
<path id="Rectangle 4" d="M704.809 310C704.809 304.477 709.286 300 714.809 300H732.809C738.332 300 742.809 304.477 742.809 310V328C742.809 333.523 738.332 338 732.809 338H714.809C709.286 338 704.809 333.523 704.809 328V310Z" fill="#BD93F9"/>
<path id="Rectangle 8" d="M645 310C645 304.477 649.477 300 655 300H673C678.523 300 683 304.477 683 310V328C683 333.523 678.523 338 673 338H655C649.477 338 645 333.523 645 328V310Z" fill="#BD93F9"/>
<path id="Rectangle 9" d="M764.618 310C764.618 304.477 769.095 300 774.618 300H792.618C798.14 300 802.618 304.477 802.618 310V328C802.618 333.523 798.14 338 792.618 338H774.618C769.095 338 764.618 333.523 764.618 328V310Z" fill="#BD93F9"/>
</g>
</g>
<g id="header">
<g id="header__status">
<rect id="header__status--2" x="645" y="252" width="60" height="10" rx="5" fill="#50FA7B"/>
<rect id="header__status--1" x="645" y="266" width="98" height="10" rx="5" fill="#50FA7B"/>
</g>
<rect id="header__character" x="666" y="120" width="116" height="116" rx="58" stroke="#50FA7B" stroke-width="4"/>
</g>
</g>
</g>
<g id="info">
<rect id="bar" x="96" y="66" width="48" height="414" rx="12" fill="#BD93F9"/>
<g id="info__coments">
<g id="coments">
<g id="coments__profile">
<g id="coments__profile--text">
<rect id="text" x="234" y="442" width="98" height="10" rx="5" fill="#F8F8F2"/>
<rect id="text_2" x="234" y="456" width="138" height="10" rx="5" fill="#F8F8F2"/>
</g>
<path id="coments__profile--charactere" d="M193 434H221C225.418 434 229 437.582 229 442V470C229 474.418 225.418 478 221 478H193C188.582 478 185 474.418 185 470V442C185 437.582 188.582 434 193 434Z" stroke="#F8F8F2" stroke-width="4"/>
</g>
<g id="coments__profile_2">
<g id="coments__profile--text_2">
<rect id="text_3" x="241" y="368" width="98" height="10" rx="5" fill="#F8F8F2"/>
<rect id="text_4" x="241" y="382" width="138" height="10" rx="5" fill="#F8F8F2"/>
</g>
<path id="coments__profile--charactere_2" d="M193 356H221C225.418 356 229 359.582 229 364V392C229 396.418 225.418 400 221 400H193C188.582 400 185 396.418 185 392V364C185 359.582 188.582 356 193 356Z" stroke="#F8F8F2" stroke-width="4"/>
</g>
</g>
</g>
<g id="graphic">
<path id="line" d="M421 193C255 193 193.167 193 183 193" stroke="#F8F8F2" stroke-opacity="0.33"/>
<path id="line_2" d="M421 162C255 162 193.167 162 183 162" stroke="#F8F8F2" stroke-opacity="0.33"/>
<path id="line_3" d="M421 221C255 221 193.167 221 183 221" stroke="#F8F8F2" stroke-opacity="0.33"/>
<path id="line_4" d="M421 250C255 250 193.167 250 183 250" stroke="#F8F8F2" stroke-opacity="0.33"/>
<g id="curv">
<path id="Vector 5" d="M187 246.5C263.5 156 265 153.5 302 181C331.6 203 389.333 179.5 414.5 165" stroke="#50FA7B"/>
<rect id="point" x="299" y="178" width="4" height="4" rx="2" fill="#F8F8F2"/>
<rect id="point_2" x="412" y="163" width="4" height="4" rx="2" fill="#F8F8F2"/>
<rect id="point_3" x="185" y="244" width="4" height="4" rx="2" fill="#F8F8F2"/>
</g>
</g>
<g id="profile">
<path id="character" d="M183 85C183 79.4772 187.477 75 193 75H221C226.523 75 231 79.4772 231 85V113C231 118.523 226.523 123 221 123H193C187.477 123 183 118.523 183 113V85Z" fill="#50FA7B"/>
<rect id="status" x="241" y="94" width="98" height="10" rx="5" fill="#50FA7B"/>
</g>
</g>
</g>
<defs>
<filter id="filter0_d" x="602" y="96" width="208" height="368" filterUnits="userSpaceOnUse" color-interpolation-filters="sRGB">
<feFlood flood-opacity="0" result="BackgroundImageFix"/>
<feColorMatrix in="SourceAlpha" type="matrix" values="0 0 0 0 0 0 0 0 0 0 0 0 0 0 0 0 0 0 127 0"/>
<feOffset dy="4"/>
<feGaussianBlur stdDeviation="2"/>
<feColorMatrix type="matrix" values="0 0 0 0 0 0 0 0 0 0 0 0 0 0 0 0 0 0 0.25 0"/>
<feBlend mode="normal" in2="BackgroundImageFix" result="effect1_dropShadow"/>
<feBlend mode="normal" in="SourceGraphic" in2="effect1_dropShadow" result="shape"/>
</filter>
<filter id="filter1_d" x="603" y="70" width="232" height="392" filterUnits="userSpaceOnUse" color-interpolation-filters="sRGB">
<feFlood flood-opacity="0" result="BackgroundImageFix"/>
<feColorMatrix in="SourceAlpha" type="matrix" values="0 0 0 0 0 0 0 0 0 0 0 0 0 0 0 0 0 0 127 0"/>
<feOffset dy="4"/>
<feGaussianBlur stdDeviation="8"/>
<feColorMatrix type="matrix" values="0 0 0 0 0 0 0 0 0 0 0 0 0 0 0 0 0 0 0.25 0"/>
<feBlend mode="normal" in2="BackgroundImageFix" result="effect1_dropShadow"/>
<feBlend mode="normal" in="SourceGraphic" in2="effect1_dropShadow" result="shape"/>
</filter>
</defs>
</svg>
